<svg width="200" height="37" viewBox="0 0 200 37" fill="none" xmlns="http://www.w3.org/2000/svg">
<g id="shape">
<path id="Combined Shape" fill-rule="evenodd" clip-rule="evenodd" d="M17.7211 0.666656C27.5054 0.666656 35.4401 8.62532 35.4401 18.4438C35.4401 28.261 27.5054 36.2222 17.7211 36.2222C7.93347 36.2222 0 28.261 0 18.4438C0 8.62532 7.93347 0.666656 17.7211 0.666656ZM15.8313 30.9145C15.7558 32.8325 14.7069 32.9706 13.3008 32.9706V33.8675H21.7994V32.8948C20.4289 32.8948 19.3667 32.8325 19.2911 30.9145H15.8313ZM28.4771 23.5869C28.4771 19.4718 24.1298 17.4826 22.2773 16.8941C24.9267 15.8684 26.7582 14.1379 26.7515 11.4175C26.7426 7.54072 22.0493 6.88062 20.1381 6.88062H19.2912C19.3668 4.96056 20.429 4.89822 21.7995 4.89822V3.92597H13.3009V4.82113C14.707 4.82113 15.7559 4.96056 15.8314 6.88062C15.0911 6.88011 14.3069 6.87945 13.5231 6.87879C10.3959 6.87617 7.27506 6.87355 6.97089 6.88062V7.86044C9.00139 7.86044 10.0737 8.03105 10.0737 10.757V26.2455C10.0737 28.6942 9.36584 29.0105 6.97551 29.0105L6.96208 30.0632H20.1381C24.6643 30.0632 28.4771 27.6457 28.4771 23.5869ZM19.949 17.5766C22.6294 18.8753 24.8329 21.0186 24.8329 24.2382C24.8329 26.9856 22.0559 28.6761 19.291 28.6782V18.7573C18.5218 18.9368 17.1283 19.1217 15.8313 19.1672V28.6782C14.7001 28.6584 13.54 28.2523 13.54 26.3167V8.03107L19.2822 8.02896C21.4626 8.02896 23.4041 9.25564 23.4041 11.8244C23.4041 13.8287 22.1902 15.555 19.291 16.4135V8.88073H15.8313V16.9346C15.7291 16.9405 15.6289 16.947 15.5277 16.9536C15.2778 16.9697 15.0212 16.9863 14.7111 16.9965L14.2286 18.1975C16.1483 18.1807 18.2006 17.9578 19.949 17.5766ZM159.91 25.746V16.476C159.91 12.1506 159.91 11.8263 161.282 11.8132V11.4016L161.147 11.405C160.479 11.4217 159.811 11.4383 159.084 11.4383C158.36 11.4383 157.593 11.4198 156.869 11.4022L156.845 11.4016V11.8132C158.441 11.8132 158.441 12.1506 158.441 16.476C158.441 16.9289 158.441 17.3421 158.441 17.7197C158.442 20.8806 158.442 21.5537 158.408 22.1911C157.443 20.9379 156.883 20.2525 156.03 19.2588C154.738 17.7448 152.685 15.3108 149.351 11.3334H149.024V20.2656C149.024 24.8627 149.024 25.2018 147.457 25.2018V25.6121C147.579 25.6092 147.696 25.6064 147.81 25.6037C148.409 25.5892 148.926 25.5767 149.624 25.5767C150.309 25.5767 151.03 25.5914 151.814 25.6074L152.042 25.6121V25.1971C150.49 25.1971 150.49 24.8627 150.49 20.2656C150.49 19.8989 150.49 19.5606 150.49 19.248C150.49 16.2708 150.49 15.6236 150.522 14.992C151.449 16.1904 152.107 16.9845 152.96 17.9887C154.242 19.4808 156.267 21.8524 159.582 25.746H159.91ZM50.1908 24.6778C51.0533 24.051 51.6444 22.9983 51.6444 21.6608C51.6444 19.8052 50.2282 18.4395 48.4337 18.2019C49.726 17.9867 51.0297 16.6964 51.0297 14.9617C51.0297 13.064 49.8831 11.9927 48.6205 11.6393C48.1016 11.4864 47.3588 11.3971 46.5988 11.3971C46.171 11.3971 45.7693 11.41 45.4155 11.4214C45.137 11.4304 44.8882 11.4384 44.6796 11.4384C44.4526 11.4384 44.1723 11.4402 43.8817 11.4422C43.4569 11.445 43.01 11.448 42.6747 11.4455V11.8263C44.0385 11.8263 44.0385 12.1119 44.0385 16.4369V20.2939C44.0385 24.9028 44.0385 25.1884 42.5114 25.1884V25.6075C42.7902 25.6031 43.0574 25.5981 43.3064 25.5935C43.791 25.5845 44.2064 25.5768 44.5028 25.5768C44.8177 25.5768 45.1566 25.5896 45.5004 25.6027C45.8545 25.6162 46.2139 25.6298 46.5577 25.6298C48.1603 25.6298 49.2793 25.3329 50.1908 24.6778ZM46.6584 12.7329C48.2174 12.7329 49.299 13.5367 49.299 15.1446C49.299 16.5785 48.3261 17.2656 47.4725 17.5175C47.0493 17.6489 46.5282 17.6771 46.2058 17.6771C46.0327 17.6771 45.8465 17.6681 45.7085 17.6613C45.6922 17.6605 45.6765 17.6597 45.6616 17.659V12.7877C45.6868 12.7854 45.714 12.7828 45.7433 12.78C45.9409 12.7611 46.2342 12.7329 46.6584 12.7329ZM48.0263 19.1906C48.8799 19.4333 49.9044 20.1764 49.9044 21.6027C49.9044 22.8024 49.2822 23.5316 48.434 23.8947C48.0805 24.0645 47.4116 24.2338 46.8293 24.2338C46.5404 24.2338 46.1436 24.2208 45.9068 24.1361C45.6868 24.051 45.6616 23.984 45.6616 23.4398V19.0061C45.8434 18.988 46.1781 18.9821 46.3783 18.9821C47.004 18.9821 47.5804 19.063 48.0263 19.1906ZM59.8294 20.1633H55.8683L55.8872 20.0976C56.2958 19.0205 56.618 18.1719 56.8731 17.4998C57.7265 15.2522 57.8304 14.9785 57.9131 14.7288C57.9732 15.0027 58.0798 15.2983 59.069 18.0394C59.2755 18.6116 59.5204 19.2903 59.8113 20.0976L59.8294 20.1633ZM76.4582 25.7461V16.4761C76.4582 12.1507 76.4582 11.8263 77.8328 11.8133V11.4017L77.704 11.4049C77.0345 11.4216 76.3633 11.4384 75.631 11.4384C74.9072 11.4384 74.1328 11.4196 73.4056 11.402L73.394 11.4017V11.8133C74.9903 11.8133 74.9903 12.1507 74.9903 16.4761C74.9903 16.9047 74.9904 17.2978 74.9904 17.6589C74.9907 20.8721 74.9908 21.5497 74.958 22.1912C73.991 20.9379 73.433 20.2526 72.5773 19.2588C71.2896 17.7449 69.2335 15.3109 65.9018 11.3335H65.5713V20.2656V20.3162C65.5714 24.3708 65.5714 25.2416 64.4637 25.1841C63.5799 25.1374 63.3544 24.6222 61.6795 20.2871L58.19 11.1944H57.8423L54.2218 20.2871C52.3714 24.9116 52.2156 25.1884 51.1466 25.1884V25.6121C51.5699 25.5944 52.2434 25.5767 53.1692 25.5767C54.0614 25.5767 54.8717 25.5944 55.5188 25.6121V25.1884C53.9371 25.1884 54.0307 24.9074 55.3886 21.4822H60.3183L60.3857 21.6617C61.6106 24.9258 61.7091 25.1884 60.1819 25.1884V25.6121C60.742 25.5944 61.6997 25.5767 62.6612 25.5767C63.5839 25.5767 63.9341 25.5935 64.294 25.6107L64.3247 25.6121C64.5531 25.6068 64.736 25.6015 64.9026 25.5967C65.2922 25.5854 65.5921 25.5767 66.173 25.5767C66.8599 25.5767 67.584 25.5915 68.3701 25.6076L68.5923 25.6121V25.1972C67.0417 25.1972 67.0417 24.8627 67.0417 20.2656C67.0417 19.8549 67.0417 19.4797 67.0416 19.1363C67.0413 16.2546 67.0412 15.6157 67.072 14.992C67.9999 16.1905 68.6557 16.9845 69.5089 17.9888C70.7924 19.4808 72.8187 21.8525 76.1303 25.7461H76.4582ZM80.8688 16.437V20.2939C80.8688 24.9028 80.8688 25.1884 79.2863 25.1884V25.6122C79.9875 25.5945 80.878 25.5768 81.7946 25.5768C82.5678 25.5768 83.1561 25.5899 83.8268 25.6048C83.9359 25.6072 84.0472 25.6097 84.1618 25.6122V25.1884C82.5634 25.1884 82.5592 24.9074 82.5592 20.5142L82.5957 18.7227L85.864 22.5838C85.9303 22.6632 85.9948 22.7403 86.0573 22.8151C87.7336 24.8196 88.042 25.1884 86.5698 25.1884V25.6122C86.7131 25.6094 86.8516 25.6067 86.9869 25.604C87.7236 25.5894 88.3615 25.5768 89.1193 25.5768C90.0384 25.5768 90.7962 25.5945 91.3286 25.6122V25.1884C90.3663 25.1884 89.9817 24.9028 87.8878 22.4857L84.1228 18.17L87.2613 14.5527C87.4831 14.3026 87.6836 14.0751 87.8659 13.868C89.4333 12.0887 89.6643 11.8264 90.614 11.8264V11.4018C90.0993 11.4195 89.3393 11.4384 88.5726 11.4384C88.0062 11.4384 87.5122 11.4277 86.9201 11.4149C86.7243 11.4106 86.5178 11.4062 86.2944 11.4018V11.8264C87.5779 11.8264 87.4667 12.1689 85.4706 14.5005L82.5592 17.889V16.2453C82.5592 12.1162 82.5915 11.8264 84.0136 11.8264V11.4018L83.9576 11.4032C83.2762 11.4205 82.5678 11.4384 81.701 11.4384C80.8109 11.4384 80.003 11.4195 79.3463 11.4018V11.8264C80.8688 11.8264 80.8688 12.112 80.8688 16.437ZM100.897 20.2872V16.4323C100.897 12.1074 100.902 11.8264 102.365 11.8264V11.4018C101.831 11.4195 100.904 11.4384 100.009 11.4384C99.1748 11.4384 98.3888 11.4195 97.6809 11.4018V11.8264C99.2033 11.8264 99.2033 12.112 99.2033 16.437V20.307C99.2033 24.9028 99.2033 25.1884 97.6221 25.1884V25.6122L97.6837 25.6107C98.413 25.5935 99.1229 25.5768 100.055 25.5768C100.965 25.5768 101.855 25.5945 102.515 25.6122V25.1884C100.897 25.1884 100.897 24.8986 100.897 20.2872ZM140.04 25.8037C144.383 25.8037 147.475 22.5727 147.475 18.2954C147.475 14.1688 144.375 11.2622 140.325 11.2622C136.091 11.2622 132.839 14.2404 132.839 18.594C132.839 22.7488 136.044 25.8037 140.04 25.8037ZM140.173 12.7329C143.223 12.7329 145.61 15.1492 145.61 18.4004C145.61 22.0287 143.182 24.332 140.138 24.332C137.123 24.332 134.723 21.9907 134.723 18.5175C134.723 15.1492 137.092 12.7329 140.173 12.7329ZM164.196 16.437V20.2939C164.196 24.9028 164.196 25.1884 162.773 25.1884V25.6122C163.623 25.5945 164.881 25.5768 166.548 25.5768C168.212 25.5768 170.008 25.5945 171.28 25.6122C171.28 24.6356 171.34 23.5663 171.388 22.7268L171.397 22.5682H171.002C170.846 24.0329 170.344 24.158 169.335 24.1757C168.452 24.1859 167.685 24.1816 166.904 24.1773L166.617 24.1757C165.925 24.1715 165.89 24.1315 165.89 23.4221V19.0062H168.028C169.619 19.0062 170.044 19.063 170.153 20.0833H170.531C170.493 19.499 170.46 18.9013 170.46 18.2799C170.46 17.7504 170.493 17.1998 170.531 16.7226H170.148C170.031 17.6198 169.584 17.6514 167.979 17.6514H165.89V12.7788H168.735C170.222 12.7788 170.526 13.0552 170.586 14.5371H170.984C170.993 13.4587 171.046 12.393 171.122 11.4018C169.895 11.4195 168.108 11.4384 166.421 11.4384C165.037 11.4384 163.96 11.4202 163.159 11.4067C163.055 11.405 162.957 11.4033 162.862 11.4018V11.8264C164.196 11.8264 164.196 12.112 164.196 16.437ZM176.238 25.7638C179.056 25.7638 180.616 24.0779 180.616 21.9169C180.616 20.106 179.525 19.0347 178.123 18.1084C177.251 17.5376 176.678 17.1104 176.207 16.7157C175.594 16.1782 175.253 15.5282 175.253 14.8045C175.253 13.502 176.256 12.7029 177.571 12.7029C178.178 12.7029 178.714 12.868 179.027 13.1364C179.43 13.4687 179.596 13.9271 179.576 14.7902H179.986C179.999 13.8289 180.025 12.7286 180.096 11.6805C179.434 11.4564 178.5 11.2968 177.642 11.2968C175.189 11.2968 173.524 12.9068 173.524 14.9819C173.524 16.5641 174.369 17.6968 175.878 18.6969C176.647 19.202 177.227 19.5988 177.749 20.0129C178.543 20.6439 178.856 21.3124 178.856 22.1553C178.856 23.489 177.798 24.3543 176.242 24.3543C175.531 24.3543 174.927 24.2072 174.513 23.8458C174.084 23.4755 173.831 22.8622 173.804 21.9123H173.393C173.375 23.1347 173.328 24.3231 173.249 25.1483C173.886 25.4558 175.091 25.7638 176.238 25.7638ZM190.747 21.4822H195.678L195.742 21.6537C196.97 24.9254 197.069 25.1884 195.542 25.1884V25.6121C196.1 25.5944 197.058 25.5767 198.02 25.5767C198.969 25.5767 199.631 25.5944 200 25.6121V25.1884C198.96 25.1884 198.82 24.9027 197.04 20.2871L193.55 11.1944H193.201L189.578 20.2871C187.827 24.6732 187.596 25.1841 186.662 25.1841C185.311 25.1841 185.28 24.6643 185.28 20.2871V16.4323C185.28 12.1073 185.284 11.8263 186.746 11.8263V11.4017C186.214 11.4194 185.287 11.4384 184.391 11.4384C183.559 11.4384 182.772 11.4194 182.066 11.4017V11.8263C183.589 11.8263 183.589 12.1119 183.589 16.4369V20.3069C183.589 24.9027 183.589 25.1884 182.004 25.1884V25.6121L182.066 25.6107C182.797 25.5935 183.509 25.5767 184.44 25.5767C185.347 25.5767 186.042 25.5944 186.702 25.6121C187.124 25.5944 187.605 25.5767 188.529 25.5767C189.423 25.5767 190.232 25.5944 190.879 25.6121V25.1884C189.296 25.1884 189.39 24.9074 190.747 21.4822ZM195.189 20.1633H191.228L191.246 20.0976C191.597 19.1728 191.884 18.4164 192.12 17.7957C193.078 15.2753 193.187 14.989 193.273 14.7288C193.334 15.0042 193.441 15.3016 194.445 18.0854C194.648 18.6478 194.888 19.3118 195.171 20.0976L195.189 20.1633ZM116.331 25.746V16.476C116.331 12.1506 116.331 11.8263 117.707 11.8132V11.4016L117.564 11.4052C116.897 11.4218 116.233 11.4383 115.504 11.4383C114.78 11.4383 114.003 11.4195 113.274 11.4018L113.266 11.4016V11.8132C114.862 11.8132 114.862 12.1506 114.862 16.476C114.862 16.9513 114.862 17.3829 114.862 17.7755C114.863 20.8886 114.863 21.5574 114.831 22.1911C113.862 20.9379 113.306 20.2525 112.451 19.2588C111.159 17.7448 109.105 15.3108 105.771 11.3334H105.445V20.2656C105.445 24.8627 105.445 25.2018 103.878 25.2018V25.6121C104.001 25.6092 104.12 25.6063 104.236 25.6036C104.835 25.5891 105.35 25.5767 106.047 25.5767C106.734 25.5767 107.462 25.5916 108.25 25.6077L108.465 25.6121V25.1971C106.913 25.1971 106.913 24.8627 106.913 20.2656C106.913 19.8988 106.913 19.5605 106.913 19.2478C106.913 16.2708 106.913 15.6236 106.945 14.992C107.874 16.1904 108.527 16.9845 109.381 17.9887C110.666 19.4808 112.693 21.8524 116.005 25.746H116.331ZM129.034 24.0847C130.785 22.6954 131.688 20.6347 131.688 18.1173C131.688 15.5805 130.592 13.489 128.778 12.4477C127.54 11.7328 126.224 11.3908 123.957 11.3908C123.319 11.3908 122.853 11.4051 122.432 11.418C122.085 11.4287 121.769 11.4384 121.414 11.4384C121.054 11.4384 120.614 11.4443 120.188 11.45C119.787 11.4555 119.397 11.4607 119.096 11.4607V11.8567C120.621 11.8567 120.621 12.112 120.621 16.4369V20.2939C120.621 24.8628 120.621 25.1884 119.025 25.1884V25.6075C119.215 25.6044 119.4 25.6009 119.582 25.5975C120.151 25.5869 120.696 25.5768 121.312 25.5768C121.778 25.5768 122.274 25.59 122.708 25.6015C123.046 25.6105 123.346 25.6185 123.566 25.6185C126.022 25.6185 127.705 25.1328 129.034 24.0847ZM127.793 13.7877C129.071 14.6698 129.869 16.3257 129.869 18.2391C129.869 20.2109 129.198 21.861 127.94 22.9183C126.904 23.7991 125.553 24.2073 123.903 24.2073C123.465 24.2073 123.037 24.1896 122.69 24.1269C122.396 24.0826 122.312 23.9706 122.312 23.6007V12.89C122.943 12.8424 123.288 12.8176 123.997 12.8176C125.49 12.8176 126.882 13.1601 127.793 13.7877Z" fill="#004F91"/>
</g>
</svg>
